<svg id="visual" viewBox="0 0 1920 1080" width="1920" height="1080" xmlns="http://www.w3.org/2000/svg" xmlns:xlink="http://www.w3.org/1999/xlink" version="1.1"><path d="M0 892L113 772L226 767L339 858L452 833L565 859L678 786L791 866L904 851L1016 813L1129 874L1242 878L1355 841L1468 818L1581 840L1694 808L1807 889L1920 894L1920 1081L1807 1081L1694 1081L1581 1081L1468 1081L1355 1081L1242 1081L1129 1081L1016 1081L904 1081L791 1081L678 1081L565 1081L452 1081L339 1081L226 1081L113 1081L0 1081Z" fill="#8e9bcd"></path><path d="M0 918L113 828L226 864L339 888L452 933L565 843L678 922L791 839L904 915L1016 853L1129 939L1242 881L1355 898L1468 831L1581 875L1694 880L1807 885L1920 872L1920 1081L1807 1081L1694 1081L1581 1081L1468 1081L1355 1081L1242 1081L1129 1081L1016 1081L904 1081L791 1081L678 1081L565 1081L452 1081L339 1081L226 1081L113 1081L0 1081Z" fill="#7683b8"></path><path d="M0 923L113 1011L226 951L339 894L452 892L565 964L678 896L791 971L904 983L1016 973L1129 945L1242 958L1355 996L1468 906L1581 975L1694 961L1807 960L1920 991L1920 1081L1807 1081L1694 1081L1581 1081L1468 1081L1355 1081L1242 1081L1129 1081L1016 1081L904 1081L791 1081L678 1081L565 1081L452 1081L339 1081L226 1081L113 1081L0 1081Z" fill="#5e6ba2"></path><path d="M0 960L113 1020L226 973L339 962L452 1067L565 985L678 970L791 1011L904 1047L1016 1070L1129 972L1242 1028L1355 1066L1468 1069L1581 1046L1694 1008L1807 968L1920 970L1920 1081L1807 1081L1694 1081L1581 1081L1468 1081L1355 1081L1242 1081L1129 1081L1016 1081L904 1081L791 1081L678 1081L565 1081L452 1081L339 1081L226 1081L113 1081L0 1081Z" fill="#47558d"></path></svg>