<svg id="visual" viewBox="0 0 675 900" width="675" height="900" xmlns="http://www.w3.org/2000/svg" xmlns:xlink="http://www.w3.org/1999/xlink" version="1.1"><path d="M0 538L28.2 496C56.3 454 112.7 370 169 380C225.3 390 281.7 494 337.8 543C394 592 450 586 506.2 538.5C562.3 491 618.7 402 646.8 357.5L675 313L675 901L646.8 901C618.7 901 562.3 901 506.2 901C450 901 394 901 337.8 901C281.7 901 225.3 901 169 901C112.7 901 56.3 901 28.2 901L0 901Z" fill="#58628a" stroke-linecap="round" stroke-linejoin="miter"></path></svg>